<svg width="25" height="25" viewBox="0 0 25 25" fill="none" xmlns="http://www.w3.org/2000/svg">
<circle cx="12.5" cy="12.5" r="12" stroke="white"/>
<g clip-path="url(#clip0_42_80)">
<path d="M6.875 6.875H18.125C18.2908 6.875 18.4497 6.94085 18.5669 7.05806C18.6842 7.17527 18.75 7.33424 18.75 7.5V17.5C18.75 17.6658 18.6842 17.8247 18.5669 17.9419C18.4497 18.0592 18.2908 18.125 18.125 18.125H6.875C6.70924 18.125 6.55027 18.0592 6.43306 17.9419C6.31585 17.8247 6.25 17.6658 6.25 17.5V7.5C6.25 7.33424 6.31585 7.17527 6.43306 7.05806C6.55027 6.94085 6.70924 6.875 6.875 6.875ZM12.5375 12.3019L8.53 8.89875L7.72063 9.85125L12.5456 13.9481L17.2838 9.84813L16.4663 8.9025L12.5381 12.3019H12.5375Z" fill="white"/>
</g>
<defs>
<clipPath id="clip0_42_80">
<rect width="15" height="15" fill="white" transform="translate(5 5)"/>
</clipPath>
</defs>
</svg>
