<svg width="26" height="26" viewBox="0 0 26 26" fill="none" xmlns="http://www.w3.org/2000/svg">
<path d="M17.4417 3.25004C17.2964 3.96496 17.2964 4.70179 17.4417 5.41671H4.88692L13.0661 12.6339L18.5358 7.73721C18.9973 8.30812 19.5737 8.78371 20.2291 9.12929L13.078 15.5329L4.33334 7.81737V20.5834H21.6667V9.64171C22.3816 9.78694 23.1184 9.78694 23.8333 9.64171V21.6667C23.8333 21.954 23.7192 22.2296 23.516 22.4327C23.3129 22.6359 23.0373 22.75 22.75 22.75H3.25001C2.96269 22.75 2.68714 22.6359 2.48397 22.4327C2.28081 22.2296 2.16667 21.954 2.16667 21.6667V4.33337C2.16667 4.04606 2.28081 3.77051 2.48397 3.56734C2.68714 3.36418 2.96269 3.25004 3.25001 3.25004H17.4417ZM22.75 7.58337C22.3232 7.58337 21.9006 7.49931 21.5063 7.33598C21.112 7.17265 20.7537 6.93326 20.4519 6.63147C20.1501 6.32968 19.9107 5.9714 19.7474 5.5771C19.5841 5.18279 19.5 4.76017 19.5 4.33337C19.5 3.90658 19.5841 3.48396 19.7474 3.08965C19.9107 2.69534 20.1501 2.33707 20.4519 2.03528C20.7537 1.73349 21.112 1.49409 21.5063 1.33077C21.9006 1.16744 22.3232 1.08337 22.75 1.08337C23.612 1.08337 24.4386 1.42578 25.0481 2.03528C25.6576 2.64477 26 3.47142 26 4.33337C26 5.19533 25.6576 6.02198 25.0481 6.63147C24.4386 7.24096 23.612 7.58337 22.75 7.58337Z" fill="#CD930A"/>
</svg>
