<svg width="73" height="72" viewBox="0 0 73 72" fill="none" xmlns="http://www.w3.org/2000/svg">
<g filter="url(#filter0_d_42_628)">
<circle cx="36.5572" cy="32.002" r="21.1751" stroke="#CD930A"/>
</g>
<path d="M37.7256 22.0669C38.7416 22.0696 39.2573 22.075 39.7025 22.0877L39.8777 22.094C40.08 22.1012 40.2796 22.1102 40.5208 22.1211C41.4817 22.1662 42.1374 22.318 42.7126 22.541C43.3087 22.7704 43.8109 23.0811 44.313 23.5823C44.7722 24.0338 45.1276 24.5799 45.3543 25.1827C45.5774 25.758 45.7291 26.4136 45.7743 27.3755C45.7851 27.6157 45.7941 27.8153 45.8013 28.0185L45.8068 28.1937C45.8203 28.6381 45.8257 29.1537 45.8275 30.1698L45.8284 30.8435V32.0266C45.8307 32.6853 45.8237 33.3441 45.8077 34.0026L45.8022 34.1778C45.795 34.381 45.786 34.5806 45.7752 34.8209C45.73 35.7827 45.5765 36.4375 45.3543 37.0137C45.1282 37.6167 44.7728 38.163 44.313 38.614C43.8614 39.0731 43.3153 39.4284 42.7126 39.6553C42.1374 39.8784 41.4817 40.0301 40.5208 40.0753C40.3065 40.0853 40.0921 40.0944 39.8777 40.1023L39.7025 40.1078C39.2573 40.1204 38.7416 40.1267 37.7256 40.1285L37.0518 40.1294H35.8696C35.2106 40.1317 34.5516 40.1248 33.8927 40.1087L33.7175 40.1033C33.5031 40.0951 33.2888 40.0858 33.0745 40.0753C32.1135 40.0301 31.4579 39.8784 30.8817 39.6553C30.279 39.429 29.7331 39.0736 29.2822 38.614C28.8226 38.1627 28.4669 37.6165 28.24 37.0137C28.017 36.4384 27.8652 35.7827 27.8201 34.8209C27.81 34.6066 27.801 34.3922 27.793 34.1778L27.7885 34.0026C27.7718 33.3441 27.7643 32.6853 27.7659 32.0266V30.1698C27.7634 29.511 27.77 28.8523 27.7858 28.1937L27.7921 28.0185C27.7993 27.8153 27.8083 27.6157 27.8192 27.3755C27.8643 26.4136 28.0161 25.7589 28.2391 25.1827C28.4659 24.5793 28.8223 24.033 29.2831 23.5823C29.7339 23.1231 30.2794 22.7677 30.8817 22.541C31.4579 22.318 32.1126 22.1662 33.0745 22.1211C33.3147 22.1102 33.5152 22.1012 33.7175 22.094L33.8927 22.0886C34.5513 22.0725 35.21 22.0656 35.8687 22.0678L37.7256 22.0669ZM36.7972 26.5825C35.5995 26.5825 34.451 27.0583 33.6041 27.9051C32.7573 28.752 32.2815 29.9005 32.2815 31.0982C32.2815 32.2958 32.7573 33.4444 33.6041 34.2912C34.451 35.1381 35.5995 35.6138 36.7972 35.6138C37.9948 35.6138 39.1434 35.1381 39.9902 34.2912C40.837 33.4444 41.3128 32.2958 41.3128 31.0982C41.3128 29.9005 40.837 28.752 39.9902 27.9051C39.1434 27.0583 37.9948 26.5825 36.7972 26.5825ZM36.7972 28.3888C37.153 28.3887 37.5053 28.4587 37.834 28.5949C38.1628 28.731 38.4615 28.9305 38.7131 29.182C38.9647 29.4336 39.1644 29.7322 39.3006 30.0609C39.4368 30.3896 39.5069 30.7419 39.507 31.0977C39.5071 31.4535 39.437 31.8058 39.3009 32.1346C39.1648 32.4633 38.9653 32.762 38.7138 33.0137C38.4622 33.2653 38.1636 33.4649 37.8349 33.6011C37.5062 33.7374 37.1539 33.8075 36.7981 33.8076C36.0795 33.8076 35.3903 33.5221 34.8822 33.014C34.3741 32.5059 34.0887 31.8167 34.0887 31.0982C34.0887 30.3796 34.3741 29.6905 34.8822 29.1823C35.3903 28.6742 36.0795 28.3888 36.7981 28.3888M41.5395 25.2278C41.2401 25.2278 40.9529 25.3468 40.7412 25.5585C40.5295 25.7702 40.4106 26.0573 40.4106 26.3568C40.4106 26.6562 40.5295 26.9433 40.7412 27.155C40.9529 27.3667 41.2401 27.4857 41.5395 27.4857C41.8389 27.4857 42.126 27.3667 42.3377 27.155C42.5495 26.9433 42.6684 26.6562 42.6684 26.3568C42.6684 26.0573 42.5495 25.7702 42.3377 25.5585C42.126 25.3468 41.8389 25.2278 41.5395 25.2278Z" fill="#CD930A"/>
<defs>
<filter id="filter0_d_42_628" x="0.882095" y="0.326904" width="71.3501" height="71.3501" filterUnits="userSpaceOnUse" color-interpolation-filters="sRGB">
<feFlood flood-opacity="0" result="BackgroundImageFix"/>
<feColorMatrix in="SourceAlpha" type="matrix" values="0 0 0 0 0 0 0 0 0 0 0 0 0 0 0 0 0 0 127 0" result="hardAlpha"/>
<feOffset dy="4"/>
<feGaussianBlur stdDeviation="7"/>
<feColorMatrix type="matrix" values="0 0 0 0 0 0 0 0 0 0 0 0 0 0 0 0 0 0 0.15 0"/>
<feBlend mode="normal" in2="BackgroundImageFix" result="effect1_dropShadow_42_628"/>
<feBlend mode="normal" in="SourceGraphic" in2="effect1_dropShadow_42_628" result="shape"/>
</filter>
</defs>
</svg>
