<svg width="72" height="72" viewBox="0 0 72 72" fill="none" xmlns="http://www.w3.org/2000/svg">
<g filter="url(#filter0_d_42_644)">
<circle cx="36.3243" cy="32.002" r="21.1751" stroke="#CD930A"/>
</g>
<g clip-path="url(#clip0_42_644)">
<path d="M42.697 38.3761V38.3755H42.7005V33.2318C42.7005 30.7155 42.1588 28.7771 39.217 28.7771C37.8028 28.7771 36.8538 29.5532 36.4663 30.2889H36.4254V29.012H33.6362V38.3755H36.5406V33.739C36.5406 32.5183 36.772 31.3378 38.2837 31.3378C39.7733 31.3378 39.7955 32.731 39.7955 33.8173V38.3761H42.697Z" fill="#CD930A"/>
<path d="M28.9068 29.0127H31.8147V38.3762H28.9068V29.0127Z" fill="#CD930A"/>
<path d="M30.3596 24.3511C29.4298 24.3511 28.6754 25.1055 28.6754 26.0352C28.6754 26.965 29.4298 27.7352 30.3596 27.7352C31.2893 27.7352 32.0438 26.965 32.0438 26.0352C32.0432 25.1055 31.2887 24.3511 30.3596 24.3511V24.3511Z" fill="#CD930A"/>
</g>
<defs>
<filter id="filter0_d_42_644" x="0.6492" y="0.326904" width="71.3501" height="71.3501" filterUnits="userSpaceOnUse" color-interpolation-filters="sRGB">
<feFlood flood-opacity="0" result="BackgroundImageFix"/>
<feColorMatrix in="SourceAlpha" type="matrix" values="0 0 0 0 0 0 0 0 0 0 0 0 0 0 0 0 0 0 127 0" result="hardAlpha"/>
<feOffset dy="4"/>
<feGaussianBlur stdDeviation="7"/>
<feColorMatrix type="matrix" values="0 0 0 0 0 0 0 0 0 0 0 0 0 0 0 0 0 0 0.15 0"/>
<feBlend mode="normal" in2="BackgroundImageFix" result="effect1_dropShadow_42_644"/>
<feBlend mode="normal" in="SourceGraphic" in2="effect1_dropShadow_42_644" result="shape"/>
</filter>
<clipPath id="clip0_42_644">
<rect width="14.025" height="14.025" fill="white" transform="translate(28.6754 24.3511)"/>
</clipPath>
</defs>
</svg>
