<svg width="20" height="20" viewBox="0 0 20 20" fill="none" xmlns="http://www.w3.org/2000/svg">
<path d="M7.1465 8.57217C8.16303 10.358 9.64198 11.837 11.4278 12.8535L12.3855 11.5123C12.5395 11.2967 12.7672 11.145 13.0255 11.0859C13.2839 11.0268 13.5549 11.0644 13.7873 11.1917C15.3195 12.029 17.0116 12.5326 18.7523 12.6693C19.0239 12.6909 19.2775 12.814 19.4624 13.0142C19.6474 13.2144 19.75 13.4769 19.75 13.7494V18.5833C19.7501 18.8515 19.6506 19.1102 19.4709 19.3093C19.2912 19.5084 19.044 19.6338 18.7772 19.6612C18.203 19.7208 17.6245 19.75 17.0417 19.75C7.76833 19.75 0.25 12.2317 0.25 2.95833C0.25 2.3755 0.27925 1.797 0.338833 1.22283C0.366193 0.956005 0.491566 0.708814 0.690689 0.529103C0.889812 0.349393 1.14852 0.249942 1.41675 0.25H6.25058C6.52311 0.249966 6.78564 0.352647 6.98582 0.537572C7.18601 0.722496 7.30914 0.976076 7.33067 1.24775C7.46741 2.98844 7.971 4.68049 8.80833 6.21267C8.93559 6.44511 8.97323 6.71614 8.91414 6.97446C8.85505 7.23279 8.70332 7.4605 8.48767 7.6145L7.1465 8.57217ZM4.41433 7.86042L6.47267 6.39033C5.88851 5.12944 5.4883 3.79124 5.28425 2.41667H2.4275C2.421 2.5965 2.41775 2.77742 2.41775 2.95833C2.41667 11.0357 8.96433 17.5833 17.0417 17.5833C17.2226 17.5833 17.4035 17.5801 17.5833 17.5725V14.7158C16.2088 14.5117 14.8706 14.1115 13.6097 13.5273L12.1396 15.5857C11.5477 15.3557 10.9728 15.0842 10.4193 14.7732L10.3564 14.7374C8.23154 13.5281 6.47189 11.7685 5.26258 9.64358L5.22683 9.58075C4.91582 9.02716 4.64431 8.45228 4.41433 7.86042Z" fill="#CD930A"/>
</svg>
