<svg width="25" height="25" viewBox="0 0 25 25" fill="none" xmlns="http://www.w3.org/2000/svg">
<circle cx="12.5" cy="12.5" r="12" stroke="white"/>
<g clip-path="url(#clip0_42_74)">
<path d="M18.125 15.2625V17.4725C18.1251 17.6307 18.0651 17.7831 17.9572 17.8989C17.8494 18.0146 17.7016 18.0852 17.5437 18.0963C17.2706 18.115 17.0475 18.125 16.875 18.125C11.3519 18.125 6.875 13.6481 6.875 8.125C6.875 7.9525 6.88438 7.72938 6.90375 7.45625C6.91483 7.2984 6.98536 7.15063 7.10113 7.04276C7.21689 6.93488 7.36926 6.87493 7.5275 6.875H9.7375C9.81502 6.87492 9.88981 6.90366 9.94733 6.95564C10.0049 7.00761 10.041 7.07911 10.0487 7.15625C10.0631 7.3 10.0763 7.41438 10.0888 7.50125C10.213 8.36808 10.4675 9.21115 10.8438 10.0019C10.9031 10.1269 10.8644 10.2763 10.7519 10.3563L9.40313 11.32C10.2278 13.2415 11.7591 14.7728 13.6806 15.5975L14.6431 14.2513C14.6825 14.1962 14.7399 14.1568 14.8053 14.1398C14.8708 14.1228 14.9401 14.1293 15.0013 14.1581C15.7919 14.5337 16.6347 14.7876 17.5013 14.9113C17.5881 14.9238 17.7025 14.9375 17.845 14.9513C17.922 14.9591 17.9934 14.9954 18.0452 15.0529C18.0971 15.1104 18.1257 15.1851 18.1256 15.2625H18.125Z" fill="white"/>
</g>
<defs>
<clipPath id="clip0_42_74">
<rect width="15" height="15" fill="white" transform="translate(5 5)"/>
</clipPath>
</defs>
</svg>
