<svg width="161" height="79" viewBox="0 0 161 79" fill="none" xmlns="http://www.w3.org/2000/svg">
<path fill-rule="evenodd" clip-rule="evenodd" d="M86.9518 26.3463C88.9363 24.3614 90.19 21.7629 90.5086 18.9742C90.8271 16.1856 90.1918 13.3713 88.7061 10.9901C87.2204 8.60881 84.9719 6.801 82.3272 5.86128C79.6825 4.92156 76.7974 4.90534 74.1422 5.81526C71.487 6.72517 69.2182 8.50759 67.7057 10.872C66.1932 13.2364 65.5261 16.0433 65.8131 18.8354C66.1001 21.6274 67.3244 24.2399 69.2863 26.247C71.2482 28.2541 73.8321 29.5375 76.6169 29.888L76.6167 44.5549L69.3864 44.5528L69.3864 47.6618L76.6166 47.6595L76.6165 53.3375L69.3863 53.3354L69.3862 56.4444L76.6165 56.4421L76.6142 63.6723L79.7232 63.6723L79.7215 29.888C82.458 29.543 85.0018 28.2969 86.9518 26.3463ZM84.7564 10.9769C85.6214 11.8419 86.3075 12.8688 86.7757 13.9989C87.2438 15.1291 87.4847 16.3404 87.4847 17.5638C87.4847 18.7871 87.2437 19.9984 86.7756 21.1286C86.3074 22.2588 85.6212 23.2857 84.7562 24.1507C83.8912 25.0157 82.8643 25.7019 81.7341 26.1701C80.6039 26.6382 79.3925 26.8792 78.1692 26.8792C76.9459 26.8792 75.7346 26.6383 74.6044 26.1702C73.4743 25.702 72.4474 25.0159 71.5824 24.1509C69.8354 22.404 68.854 20.0346 68.8541 17.564C68.8541 15.0935 69.8356 12.7241 71.5826 10.9771C73.3295 9.23009 75.6989 8.24862 78.1695 8.24858C80.6401 8.24854 83.0095 9.22994 84.7564 10.9769Z" fill="#CD930A"/>
<path d="M150.076 64.09C148.71 64.09 147.391 63.9133 146.119 63.56C144.871 63.2067 143.752 62.7474 142.763 62.1821C141.797 61.6168 141.055 61.0279 140.537 60.4155L143.363 56.211C143.811 56.6821 144.364 57.1414 145.024 57.589C145.707 58.0365 146.472 58.4134 147.32 58.7196C148.192 59.0022 149.122 59.1435 150.111 59.1435C151.077 59.1435 151.866 59.0493 152.479 58.8609C153.091 58.6489 153.55 58.3309 153.857 57.9069C154.186 57.483 154.351 56.9412 154.351 56.2817C154.351 55.6222 154.175 55.0922 153.821 54.6918C153.468 54.2678 152.891 53.8909 152.09 53.5612C151.289 53.2314 150.206 52.8781 148.84 52.5012C147.45 52.1008 146.19 51.5826 145.059 50.9466C143.952 50.3107 143.069 49.4862 142.409 48.4734C141.75 47.437 141.42 46.1298 141.42 44.5516C141.42 43.2797 141.667 42.1726 142.162 41.2304C142.68 40.2647 143.375 39.4639 144.246 38.8279C145.118 38.1919 146.119 37.7208 147.25 37.4146C148.38 37.1084 149.57 36.9553 150.818 36.9553C152.184 36.9553 153.397 37.132 154.457 37.4853C155.541 37.8386 156.448 38.2626 157.178 38.7572C157.932 39.2519 158.485 39.6994 158.838 40.0998L156.189 44.3043C155.835 43.9274 155.376 43.5505 154.811 43.1737C154.269 42.7968 153.656 42.4906 152.973 42.2551C152.29 42.0195 151.525 41.9017 150.677 41.9017C149.381 41.9017 148.427 42.1608 147.815 42.679C147.226 43.1737 146.932 43.8096 146.932 44.5869C146.932 45.1758 147.085 45.6822 147.391 46.1062C147.697 46.5302 148.204 46.907 148.91 47.2368C149.617 47.5666 150.547 47.8963 151.701 48.2261C152.832 48.5559 153.88 48.9209 154.846 49.3214C155.835 49.6982 156.707 50.1693 157.46 50.7346C158.214 51.2999 158.803 52.0183 159.227 52.8899C159.651 53.7378 159.863 54.786 159.863 56.0344C159.863 57.4476 159.604 58.6607 159.086 59.6735C158.591 60.6864 157.884 61.5225 156.966 62.1821C156.071 62.818 155.034 63.3009 153.857 63.6307C152.679 63.9369 151.419 64.09 150.076 64.09Z" fill="white"/>
<path d="M125.48 63.7049V54.236L116.576 37.4182H123.148L126.363 44.6612C126.693 45.3443 127.023 46.0509 127.352 46.7811C127.706 47.4877 128.071 48.2768 128.448 49.1483C128.848 48.2768 129.213 47.4759 129.543 46.7457C129.873 46.0156 130.202 45.3207 130.532 44.6612L133.712 37.4182H140.354L131.415 54.236V63.7049H125.48Z" fill="white"/>
<path d="M99.0933 63.7049V37.4182H114.957V42.4H104.676V48.0883H113.12V52.9288H104.676V58.6525H115.946V63.7049H99.0933Z" fill="white"/>
<path d="M89.142 63.7049L80.3091 50.0669L88.93 37.4182H95.749L86.5628 49.8196L96.1376 63.7049H89.142ZM80.4702 49.9552V49.9496H80.5211V49.9552H80.4702Z" fill="#CD930A"/>
<path d="M40.666 63.7049V37.4182H56.7419V42.4H45.3298L46.4604 41.1987V49.5369L45.2238 48.6537H54.5514V53.5647H45.3298L46.4604 53.1054V63.7049H40.666Z" fill="white"/>
<path d="M20.8511 63.7049V37.4182H36.927V42.4H25.5149L26.6455 41.1987V49.5369L25.4089 48.6537H34.7364V53.5647H25.5149L26.6455 53.1054V63.7049H20.8511Z" fill="white"/>
<path d="M0.150879 63.7049V37.4182H16.0148V42.4H5.73328V48.0883H14.1775V52.9288H5.73328V58.6525H17.0041V63.7049H0.150879Z" fill="white"/>
<path d="M154.587 78.1249V69.1162H159.717V70.2104H155.778V73.0431H159.073V74.1129H155.778V77.0307H160.07V78.1249H154.587Z" fill="white"/>
<path d="M144.62 78.1249V69.1162H145.823V78.1249H144.62Z" fill="white"/>
<path d="M135.068 78.1249L133.11 74.4047H131.08V73.347H133.086C133.678 73.347 134.128 73.2173 134.436 72.958C134.744 72.6986 134.898 72.269 134.898 71.6693C134.898 71.3613 134.845 71.0979 134.74 70.879C134.642 70.6521 134.464 70.4778 134.205 70.3563C133.945 70.2347 133.576 70.1739 133.098 70.1739H131.445V78.1249H130.253V69.1162H133.062C134.132 69.1162 134.91 69.3432 135.396 69.797C135.89 70.2428 136.138 70.8466 136.138 71.6085C136.138 72.1272 136.048 72.5811 135.87 72.9701C135.7 73.3511 135.461 73.655 135.153 73.8819C134.853 74.1089 134.509 74.2507 134.119 74.3074C134.209 74.3156 134.318 74.4047 134.448 74.5749C134.577 74.7451 134.719 74.964 134.873 75.2314C135.035 75.4989 135.197 75.7866 135.36 76.0946C135.522 76.3945 135.676 76.6903 135.822 76.9821C135.976 77.2658 136.109 77.513 136.223 77.7237C136.344 77.9263 136.433 78.0601 136.49 78.1249H135.068Z" fill="white"/>
<path d="M116.707 78.1249V69.1162H121.837V70.2104H117.898V73.0431H121.193V74.1129H117.898V77.0307H122.19V78.1249H116.707Z" fill="white"/>
<path d="M104.805 78.2704C104.246 78.2704 103.695 78.1731 103.152 77.9786C102.617 77.7841 102.131 77.4923 101.693 77.1033C101.263 76.7061 100.915 76.2158 100.647 75.6322C100.388 75.0405 100.258 74.3597 100.258 73.5898C100.258 72.8522 100.384 72.1957 100.635 71.6202C100.886 71.0448 101.227 70.5585 101.656 70.1614C102.094 69.7642 102.593 69.4643 103.152 69.2617C103.711 69.0591 104.303 68.9578 104.927 68.9578C105.486 68.9578 105.968 69.0267 106.374 69.1644C106.779 69.2941 107.115 69.4522 107.383 69.6386C107.65 69.825 107.845 70.0033 107.966 70.1735L107.407 71.1583C107.261 70.98 107.083 70.8097 106.872 70.6477C106.661 70.4774 106.394 70.3397 106.07 70.2343C105.745 70.1289 105.352 70.0762 104.89 70.0762C104.42 70.0762 103.978 70.1532 103.565 70.3072C103.16 70.4612 102.799 70.6882 102.483 70.9881C102.167 71.2879 101.92 71.6527 101.742 72.0822C101.563 72.5037 101.474 72.994 101.474 73.5533C101.474 74.1693 101.567 74.7042 101.754 75.1581C101.948 75.6119 102.203 75.9888 102.52 76.2887C102.836 76.5805 103.188 76.8034 103.577 76.9574C103.974 77.1033 104.38 77.1762 104.793 77.1762C105.287 77.1762 105.693 77.1276 106.009 77.0303C106.325 76.925 106.576 76.7993 106.763 76.6534C106.957 76.4994 107.099 76.3535 107.188 76.2158V74.5016H105.133V73.4196H108.343V76.6291C108.23 76.8074 108.071 76.9938 107.869 77.1884C107.674 77.3748 107.431 77.5531 107.139 77.7233C106.848 77.8854 106.507 78.0191 106.118 78.1245C105.729 78.2217 105.291 78.2704 104.805 78.2704Z" fill="white"/>
<path d="M91.3671 78.1249L89.4097 74.4047H87.3794V73.347H89.3854C89.9771 73.347 90.4269 73.2173 90.7349 72.958C91.0429 72.6986 91.1969 72.269 91.1969 71.6693C91.1969 71.3613 91.1442 71.0979 91.0388 70.879C90.9416 70.6521 90.7633 70.4778 90.5039 70.3563C90.2446 70.2347 89.8758 70.1739 89.3976 70.1739H87.7442V78.1249H86.5527V69.1162H89.3611C90.431 69.1162 91.209 69.3432 91.6953 69.797C92.1897 70.2428 92.4369 70.8466 92.4369 71.6085C92.4369 72.1272 92.3478 72.5811 92.1695 72.9701C91.9993 73.3511 91.7602 73.655 91.4522 73.8819C91.1523 74.1089 90.8079 74.2507 90.4188 74.3074C90.508 74.3156 90.6174 74.4047 90.7471 74.5749C90.8767 74.7451 91.0186 74.964 91.1726 75.2314C91.3347 75.4989 91.4968 75.7866 91.6589 76.0946C91.821 76.3945 91.975 76.6903 92.1209 76.9821C92.2748 77.2658 92.4086 77.513 92.5221 77.7237C92.6436 77.9263 92.7328 78.0601 92.7895 78.1249H91.3671Z" fill="white"/>
<path d="M73.0029 78.1249V69.1162H78.1334V70.2104H74.1944V73.0431H77.489V74.1129H74.1944V77.0307H78.4859V78.1249H73.0029Z" fill="white"/>
<path d="M63.0356 78.1249V69.1162H64.2392V78.1249H63.0356Z" fill="white"/>
<path d="M54.2412 76.0942L54.8248 77.0425C54.6789 77.2289 54.4722 77.4193 54.2048 77.6139C53.9454 77.8003 53.6131 77.9583 53.2078 78.088C52.8107 78.2177 52.3325 78.2825 51.7733 78.2825C51.214 78.2825 50.6588 78.1893 50.1077 78.0029C49.5647 77.8165 49.0702 77.5328 48.6245 77.1519C48.1868 76.7709 47.8342 76.2928 47.5668 75.7173C47.3074 75.1418 47.1777 74.4651 47.1777 73.687C47.1777 72.917 47.3034 72.2403 47.5546 71.6567C47.8059 71.0651 48.1463 70.5707 48.5758 70.1735C49.0135 69.7683 49.512 69.4643 50.0712 69.2617C50.6386 69.0591 51.2262 68.9578 51.8341 68.9578C52.4014 68.9578 52.8836 69.0267 53.2808 69.1644C53.686 69.2941 54.0183 69.4522 54.2777 69.6386C54.5371 69.825 54.7316 70.0033 54.8613 70.1735L54.302 71.1583C54.1804 70.9962 54.0183 70.8341 53.8157 70.672C53.6131 70.5018 53.3497 70.3599 53.0255 70.2465C52.7013 70.133 52.3001 70.0762 51.8219 70.0762C51.368 70.0762 50.9344 70.1532 50.521 70.3072C50.1077 70.4531 49.743 70.676 49.4269 70.9759C49.1108 71.2758 48.8595 71.6486 48.6731 72.0944C48.4867 72.5402 48.3935 73.0548 48.3935 73.6384C48.3935 74.2219 48.4826 74.7366 48.6609 75.1824C48.8474 75.62 49.0986 75.9888 49.4147 76.2887C49.7308 76.5886 50.0915 76.8115 50.4967 76.9574C50.9101 77.1033 51.3437 77.1762 51.7976 77.1762C52.2596 77.1762 52.6486 77.1235 52.9647 77.0181C53.2808 76.9047 53.5401 76.7669 53.7428 76.6048C53.9454 76.4346 54.1115 76.2644 54.2412 76.0942Z" fill="white"/>
<path d="M32.0181 78.1249V69.1162H33.4283L37.185 75.1463C37.2741 75.276 37.3592 75.43 37.4403 75.6083C37.5294 75.7866 37.6146 75.969 37.6956 76.1554C37.7767 76.3418 37.8618 76.5242 37.9509 76.7025C37.9266 76.5242 37.9023 76.2972 37.878 76.0217C37.8536 75.7461 37.8334 75.4381 37.8172 75.0977C37.801 74.7492 37.7929 74.3926 37.7929 74.0278V69.1162H38.9721L38.9964 78.1249H37.7807L33.9268 71.9732C33.8538 71.8435 33.7687 71.6976 33.6715 71.5355C33.5823 71.3734 33.4891 71.2032 33.3919 71.0249C33.3027 70.8385 33.2014 70.6562 33.0879 70.4778C33.1284 70.7534 33.1609 71.1222 33.1852 71.5842C33.2095 72.0381 33.2217 72.577 33.2217 73.2011V78.1249H32.0181Z" fill="white"/>
<path d="M19.4216 78.2597C18.7732 78.2597 18.1815 78.1463 17.6466 77.9193C17.1116 77.6924 16.6456 77.3682 16.2485 76.9467C15.8594 76.5253 15.5595 76.0309 15.3488 75.4635C15.1381 74.8881 15.0327 74.2599 15.0327 73.5791C15.0327 72.9064 15.1381 72.2904 15.3488 71.7312C15.5676 71.1719 15.8716 70.6856 16.2606 70.2723C16.6578 69.8589 17.1238 69.5388 17.6587 69.3118C18.2018 69.0849 18.7934 68.9714 19.4337 68.9714C20.0821 68.9714 20.6738 69.0849 21.2087 69.3118C21.7436 69.5388 22.2056 69.8589 22.5947 70.2723C22.9837 70.6856 23.2836 71.1719 23.4943 71.7312C23.7131 72.2904 23.8226 72.9064 23.8226 73.5791C23.8226 74.2599 23.7131 74.8881 23.4943 75.4635C23.2836 76.0309 22.9837 76.5253 22.5947 76.9467C22.2056 77.3682 21.7396 77.6924 21.1965 77.9193C20.6616 78.1463 20.07 78.2597 19.4216 78.2597ZM19.4337 77.1534C20.0497 77.1534 20.5968 77.0075 21.075 76.7157C21.5613 76.4159 21.9382 75.9984 22.2056 75.4635C22.4812 74.9286 22.619 74.3045 22.619 73.5913C22.619 72.8861 22.4812 72.2702 22.2056 71.7433C21.9382 71.2165 21.5653 70.8072 21.0871 70.5154C20.6089 70.2237 20.0578 70.0778 19.4337 70.0778C18.8177 70.0778 18.2666 70.2237 17.7803 70.5154C17.3021 70.8072 16.9252 71.2165 16.6497 71.7433C16.3822 72.2702 16.2485 72.8861 16.2485 73.5913C16.2485 74.3045 16.3822 74.9286 16.6497 75.4635C16.9252 75.9984 17.3021 76.4159 17.7803 76.7157C18.2585 77.0075 18.8096 77.1534 19.4337 77.1534Z" fill="white"/>
<path d="M7.06349 76.0942L7.64705 77.0425C7.50116 77.2289 7.29449 77.4193 7.02702 77.6139C6.76766 77.8003 6.43536 77.9583 6.03011 78.088C5.63296 78.2177 5.15477 78.2825 4.59553 78.2825C4.03628 78.2825 3.48109 78.1893 2.92995 78.0029C2.38692 77.8165 1.89251 77.5328 1.44674 77.1519C1.00907 76.7709 0.656504 76.2928 0.389039 75.7173C0.12968 75.1418 0 74.4651 0 73.687C0 72.917 0.125627 72.2403 0.376882 71.6567C0.628136 71.0651 0.968546 70.5707 1.39811 70.1735C1.83578 69.7683 2.33424 69.4643 2.89348 69.2617C3.46083 69.0591 4.04844 68.9578 4.65631 68.9578C5.22366 68.9578 5.70591 69.0267 6.10305 69.1644C6.5083 69.2941 6.84061 69.4522 7.09997 69.6386C7.35933 69.825 7.55385 70.0033 7.68353 70.1735L7.12428 71.1583C7.00271 70.9962 6.84061 70.8341 6.63798 70.672C6.43536 70.5018 6.17195 70.3599 5.84775 70.2465C5.52355 70.133 5.12235 70.0762 4.64416 70.0762C4.19028 70.0762 3.75666 70.1532 3.34331 70.3072C2.92995 70.4531 2.56523 70.676 2.24913 70.9759C1.93304 71.2758 1.68178 71.6486 1.49537 72.0944C1.30895 72.5402 1.21575 73.0548 1.21575 73.6384C1.21575 74.2219 1.3049 74.7366 1.48321 75.1824C1.66963 75.62 1.92088 75.9888 2.23698 76.2887C2.55307 76.5886 2.91374 76.8115 3.31899 76.9574C3.73235 77.1033 4.16596 77.1762 4.61984 77.1762C5.08182 77.1762 5.47087 77.1235 5.78696 77.0181C6.10305 76.9047 6.36241 76.7669 6.56504 76.6048C6.76766 76.4346 6.93381 76.2644 7.06349 76.0942Z" fill="white"/>
</svg>
