<svg width="160" height="79" viewBox="0 0 160 79" fill="none" xmlns="http://www.w3.org/2000/svg">
<path fill-rule="evenodd" clip-rule="evenodd" d="M86.9132 26.3347C88.8968 24.3507 90.1499 21.7533 90.4684 18.9659C90.7868 16.1786 90.1517 13.3656 88.6667 10.9854C87.1817 8.60519 84.9342 6.79819 82.2907 5.85889C79.6471 4.91959 76.7633 4.90338 74.1093 5.81289C71.4553 6.7224 69.1876 8.50401 67.6758 10.8673C66.1639 13.2307 65.4971 16.0364 65.784 18.8271C66.0709 21.6179 67.2946 24.2292 69.2556 26.2354C71.2167 28.2416 73.7994 29.5245 76.5829 29.8749L76.5827 44.5351L69.3557 44.5331L69.3557 47.6407L76.5827 47.6384L76.5826 53.3137L69.3556 53.3117L69.3555 56.4193L76.5825 56.417L76.5802 63.644L79.6879 63.6439L79.6862 29.8748C82.4214 29.5299 84.9641 28.2844 86.9132 26.3347ZM84.7188 10.9722C85.5834 11.8368 86.2692 12.8632 86.7371 13.9929C87.2051 15.1226 87.4459 16.3334 87.4459 17.5561C87.4458 18.7789 87.205 19.9896 86.737 21.1193C86.2691 22.249 85.5832 23.2755 84.7186 24.1401C83.854 25.0047 82.8275 25.6906 81.6978 26.1585C80.5681 26.6265 79.3573 26.8674 78.1346 26.8674C76.9118 26.8674 75.7011 26.6266 74.5714 26.1587C73.4417 25.6907 72.4153 25.0049 71.5507 24.1403C69.8045 22.3942 68.8236 20.0259 68.8236 17.5564C68.8236 15.0869 69.8047 12.7186 71.5509 10.9724C73.2971 9.22619 75.6654 8.24516 78.1349 8.24512C80.6043 8.24509 82.9726 9.22604 84.7188 10.9722Z" fill="#CD930A"/>
<path d="M150.011 64.0693C148.645 64.0693 147.327 63.8927 146.055 63.5395C144.808 63.1864 143.689 62.7273 142.7 62.1622C141.735 61.5972 140.994 61.0086 140.476 60.3964L143.301 56.1939C143.748 56.6647 144.301 57.1238 144.961 57.5712C145.643 58.0185 146.409 58.3952 147.256 58.7013C148.127 58.9838 149.057 59.1251 150.046 59.1251C151.011 59.1251 151.8 59.0309 152.412 58.8425C153.024 58.6306 153.484 58.3128 153.79 57.889C154.119 57.4652 154.284 56.9237 154.284 56.2645C154.284 55.6053 154.107 55.0755 153.754 54.6753C153.401 54.2515 152.824 53.8748 152.024 53.5452C151.223 53.2156 150.14 52.8624 148.775 52.4857C147.386 52.0855 146.126 51.5675 144.996 50.9318C143.889 50.2961 143.007 49.4721 142.347 48.4597C141.688 47.4238 141.358 46.1171 141.358 44.5397C141.358 43.2683 141.606 42.1617 142.1 41.22C142.618 40.2547 143.313 39.4542 144.184 38.8185C145.055 38.1828 146.055 37.712 147.186 37.4059C148.316 37.0998 149.505 36.9468 150.752 36.9468C152.118 36.9468 153.331 37.1234 154.39 37.4765C155.473 37.8297 156.379 38.2535 157.109 38.7479C157.863 39.2423 158.416 39.6896 158.769 40.0899L156.12 44.2924C155.767 43.9157 155.308 43.539 154.743 43.1623C154.202 42.7856 153.589 42.4796 152.907 42.2441C152.224 42.0087 151.459 41.891 150.611 41.891C149.316 41.891 148.363 42.15 147.751 42.6679C147.162 43.1623 146.868 43.798 146.868 44.575C146.868 45.1636 147.021 45.6698 147.327 46.0936C147.633 46.5173 148.139 46.894 148.845 47.2237C149.552 47.5533 150.482 47.8829 151.635 48.2125C152.765 48.5421 153.813 48.907 154.778 49.3073C155.767 49.684 156.638 50.1549 157.392 50.7199C158.145 51.285 158.734 52.003 159.158 52.8742C159.581 53.7217 159.793 54.7694 159.793 56.0173C159.793 57.4299 159.534 58.6424 159.016 59.6548C158.522 60.6672 157.816 61.503 156.897 62.1622C156.003 62.7979 154.967 63.2805 153.79 63.6102C152.612 63.9162 151.353 64.0693 150.011 64.0693Z" fill="black"/>
<path d="M125.431 63.6677V54.2031L116.531 37.3928H123.1L126.314 44.6325C126.643 45.3153 126.973 46.0216 127.303 46.7515C127.656 47.4578 128.021 48.2465 128.397 49.1176C128.798 48.2465 129.163 47.446 129.492 46.7162C129.822 45.9863 130.151 45.2918 130.481 44.6325L133.659 37.3928H140.299L131.364 54.2031V63.6677H125.431Z" fill="black"/>
<path d="M99.0537 63.6677V37.3928H114.91V42.3723H104.634V48.0582H113.074V52.8964H104.634V58.6176H115.899V63.6677H99.0537Z" fill="black"/>
<path d="M89.1102 63.6677L80.2812 50.0359L88.8983 37.3928H95.7142L86.5321 49.7886L96.1027 63.6677H89.1102ZM80.4423 49.9242V49.9186H80.4931V49.9242H80.4423Z" fill="#CD930A"/>
<path d="M40.6445 63.6677V37.3928H56.7132V42.3723H45.3062L46.4363 41.1716V49.5061L45.2003 48.6232H54.5236V53.5321H45.3062L46.4363 53.073V63.6677H40.6445Z" fill="black"/>
<path d="M20.8403 63.6677V37.3928H36.909V42.3723H25.502L26.6321 41.1716V49.5061L25.3961 48.6232H34.7194V53.5321H25.502L26.6321 53.073V63.6677H20.8403Z" fill="black"/>
<path d="M0.15332 63.6677V37.3928H16.0101V42.3723H5.73321V48.0582H14.1737V52.8964H5.73321V58.6176H16.9989V63.6677H0.15332Z" fill="black"/>
<path d="M154.52 78.0984V69.0938H159.648V70.1874H155.71V73.0189H159.004V74.0882H155.71V77.0047H160V78.0984H154.52Z" fill="black"/>
<path d="M144.551 78.0984V69.0938H145.754V78.0984H144.551Z" fill="black"/>
<path d="M135.002 78.0984L133.045 74.3799H131.016V73.3227H133.021C133.612 73.3227 134.062 73.193 134.37 72.9338C134.678 72.6745 134.832 72.2452 134.832 71.6457C134.832 71.3378 134.779 71.0745 134.674 70.8558C134.576 70.629 134.398 70.4548 134.139 70.3333C133.88 70.2117 133.511 70.151 133.033 70.151H131.38V78.0984H130.189V69.0938H132.997C134.066 69.0938 134.844 69.3206 135.33 69.7743C135.824 70.2198 136.071 70.8234 136.071 71.5849C136.071 72.1034 135.982 72.5571 135.804 72.9459C135.634 73.3267 135.395 73.6305 135.087 73.8573C134.787 74.0842 134.443 74.226 134.054 74.2827C134.143 74.2908 134.252 74.3799 134.382 74.55C134.512 74.7201 134.653 74.9389 134.807 75.2062C134.969 75.4736 135.131 75.7612 135.293 76.069C135.455 76.3688 135.609 76.6645 135.755 76.9561C135.909 77.2397 136.043 77.4867 136.156 77.6974C136.278 77.8999 136.367 78.0336 136.423 78.0984H135.002Z" fill="black"/>
<path d="M116.656 78.0984V69.0938H121.784V70.1874H117.847V73.0189H121.14V74.0882H117.847V77.0047H122.136V78.0984H116.656Z" fill="black"/>
<path d="M104.757 78.2313C104.198 78.2313 103.647 78.1341 103.105 77.9396C102.57 77.7452 102.084 77.4536 101.646 77.0647C101.217 76.6677 100.869 76.1776 100.601 75.5943C100.342 75.0029 100.212 74.3224 100.212 73.5528C100.212 72.8155 100.338 72.1593 100.589 71.5841C100.84 71.0089 101.181 70.5229 101.61 70.1259C102.047 69.7289 102.546 69.4292 103.105 69.2267C103.664 69.0241 104.255 68.9229 104.879 68.9229C105.438 68.9229 105.92 68.9917 106.325 69.1294C106.73 69.2591 107.066 69.417 107.333 69.6034C107.601 69.7897 107.795 69.9679 107.917 70.1381L107.358 71.1224C107.212 70.9441 107.034 70.774 106.823 70.612C106.612 70.4419 106.345 70.3041 106.021 70.1988C105.697 70.0935 105.304 70.0408 104.842 70.0408C104.372 70.0408 103.931 70.1178 103.518 70.2717C103.113 70.4256 102.752 70.6525 102.436 70.9522C102.12 71.252 101.873 71.6165 101.695 72.0459C101.517 72.4672 101.428 72.9573 101.428 73.5163C101.428 74.132 101.521 74.6667 101.707 75.1204C101.902 75.574 102.157 75.9508 102.473 76.2505C102.789 76.5422 103.141 76.7649 103.53 76.9189C103.927 77.0647 104.332 77.1376 104.745 77.1376C105.239 77.1376 105.644 77.089 105.96 76.9918C106.276 76.8865 106.527 76.7609 106.714 76.6151C106.908 76.4611 107.05 76.3153 107.139 76.1776V74.4642H105.085V73.3826H108.293V76.5908C108.18 76.769 108.022 76.9553 107.82 77.1498C107.625 77.3361 107.382 77.5143 107.09 77.6844C106.799 77.8465 106.459 77.9801 106.07 78.0855C105.681 78.1827 105.243 78.2313 104.757 78.2313Z" fill="black"/>
<path d="M91.3254 78.0984L89.3689 74.3799H87.3395V73.3227H89.3446C89.936 73.3227 90.3856 73.193 90.6935 72.9338C91.0013 72.6745 91.1552 72.2452 91.1552 71.6457C91.1552 71.3378 91.1026 71.0745 90.9973 70.8558C90.9001 70.629 90.7218 70.4548 90.4626 70.3333C90.2033 70.2117 89.8347 70.151 89.3568 70.151H87.7041V78.0984H86.5132V69.0938H89.3203C90.3897 69.0938 91.1674 69.3206 91.6535 69.7743C92.1477 70.2198 92.3948 70.8234 92.3948 71.5849C92.3948 72.1034 92.3056 72.5571 92.1274 72.9459C91.9573 73.3267 91.7183 73.6305 91.4104 73.8573C91.1107 74.0842 90.7664 74.226 90.3775 74.2827C90.4666 74.2908 90.576 74.3799 90.7056 74.55C90.8352 74.7201 90.977 74.9389 91.1309 75.2062C91.293 75.4736 91.455 75.7612 91.617 76.069C91.779 76.3688 91.933 76.6645 92.0788 76.9561C92.2327 77.2397 92.3664 77.4867 92.4798 77.6974C92.6013 77.8999 92.6904 78.0336 92.7472 78.0984H91.3254Z" fill="black"/>
<path d="M72.9707 78.0984V69.0938H78.0988V70.1874H74.1616V73.0189H77.4548V74.0882H74.1616V77.0047H78.4513V78.0984H72.9707Z" fill="black"/>
<path d="M63 78.0984V69.0938H64.203V78.0984H63Z" fill="black"/>
<path d="M54.2234 76.0561L54.8067 77.0039C54.6609 77.1903 54.4543 77.3806 54.1869 77.5751C53.9277 77.7614 53.5955 77.9194 53.1905 78.049C52.7935 78.1786 52.3155 78.2434 51.7565 78.2434C51.1975 78.2434 50.6426 78.1503 50.0917 77.9639C49.5489 77.7776 49.0547 77.4941 48.6092 77.1133C48.1717 76.7325 47.8193 76.2546 47.5519 75.6794C47.2927 75.1042 47.1631 74.4277 47.1631 73.65C47.1631 72.8804 47.2887 72.2039 47.5398 71.6206C47.7909 71.0292 48.1312 70.535 48.5606 70.1381C48.998 69.733 49.4963 69.4292 50.0553 69.2267C50.6224 69.0241 51.2097 68.9229 51.8173 68.9229C52.3844 68.9229 52.8664 68.9917 53.2634 69.1294C53.6685 69.2591 54.0006 69.417 54.2599 69.6034C54.5191 69.7897 54.7135 69.9679 54.8432 70.1381L54.2842 71.1224C54.1626 70.9603 54.0006 70.7983 53.7981 70.6363C53.5955 70.4662 53.3323 70.3244 53.0082 70.211C52.6841 70.0975 52.2831 70.0408 51.8052 70.0408C51.3515 70.0408 50.9181 70.1178 50.5049 70.2717C50.0917 70.4175 49.7272 70.6403 49.4112 70.9401C49.0953 71.2398 48.8441 71.6125 48.6578 72.0581C48.4715 72.5036 48.3783 73.0181 48.3783 73.6014C48.3783 74.1847 48.4674 74.6991 48.6456 75.1447C48.832 75.5821 49.0831 75.9508 49.3991 76.2505C49.715 76.5503 50.0755 76.773 50.4806 76.9189C50.8938 77.0647 51.3272 77.1376 51.7808 77.1376C52.2426 77.1376 52.6315 77.0849 52.9474 76.9796C53.2634 76.8662 53.5226 76.7285 53.7252 76.5665C53.9277 76.3963 54.0938 76.2262 54.2234 76.0561Z" fill="black"/>
<path d="M32.0098 78.0984V69.0938H33.4194L37.1744 75.1211C37.2635 75.2508 37.3485 75.4047 37.4296 75.5829C37.5187 75.7612 37.6037 75.9434 37.6847 76.1298C37.7658 76.3161 37.8508 76.4984 37.9399 76.6766C37.9156 76.4984 37.8913 76.2715 37.867 75.9961C37.8427 75.7206 37.8225 75.4128 37.8063 75.0725C37.7901 74.7242 37.782 74.3677 37.782 74.0032V69.0938H38.9607L38.985 78.0984H37.7698L33.9176 71.9495C33.8447 71.8199 33.7597 71.674 33.6624 71.512C33.5733 71.35 33.4802 71.1798 33.3829 71.0016C33.2938 70.8153 33.1926 70.633 33.0791 70.4548C33.1196 70.7302 33.1521 71.0988 33.1764 71.5606C33.2007 72.0143 33.2128 72.553 33.2128 73.1768V78.0984H32.0098Z" fill="black"/>
<path d="M19.4074 78.2187C18.7593 78.2187 18.1679 78.1053 17.6332 77.8785C17.0985 77.6516 16.6327 77.3276 16.2357 76.9063C15.8468 76.485 15.5471 75.9908 15.3365 75.4237C15.1258 74.8485 15.0205 74.2207 15.0205 73.5402C15.0205 72.8678 15.1258 72.2521 15.3365 71.6931C15.5552 71.1341 15.859 70.648 16.2479 70.2348C16.6448 69.8217 17.1107 69.5017 17.6453 69.2748C18.1881 69.048 18.7795 68.9346 19.4195 68.9346C20.0676 68.9346 20.659 69.048 21.1937 69.2748C21.7284 69.5017 22.1902 69.8217 22.5791 70.2348C22.9679 70.648 23.2677 71.1341 23.4783 71.6931C23.697 72.2521 23.8064 72.8678 23.8064 73.5402C23.8064 74.2207 23.697 74.8485 23.4783 75.4237C23.2677 75.9908 22.9679 76.485 22.5791 76.9063C22.1902 77.3276 21.7244 77.6516 21.1816 77.8785C20.6469 78.1053 20.0555 78.2187 19.4074 78.2187ZM19.4195 77.1129C20.0352 77.1129 20.5821 76.967 21.0601 76.6754C21.5461 76.3757 21.9228 75.9584 22.1902 75.4237C22.4656 74.8891 22.6034 74.2653 22.6034 73.5523C22.6034 72.8475 22.4656 72.2318 22.1902 71.7052C21.9228 71.1786 21.5502 70.7695 21.0722 70.4779C20.5942 70.1862 20.0433 70.0404 19.4195 70.0404C18.8038 70.0404 18.2529 70.1862 17.7669 70.4779C17.2889 70.7695 16.9122 71.1786 16.6367 71.7052C16.3694 72.2318 16.2357 72.8475 16.2357 73.5523C16.2357 74.2653 16.3694 74.8891 16.6367 75.4237C16.9122 75.9584 17.2889 76.3757 17.7669 76.6754C18.2448 76.967 18.7957 77.1129 19.4195 77.1129Z" fill="black"/>
<path d="M7.06032 76.0561L7.64361 77.0039C7.49779 77.1903 7.2912 77.3806 7.02386 77.5751C6.76462 77.7614 6.43246 77.9194 6.02739 78.049C5.63043 78.1786 5.15245 78.2434 4.59346 78.2434C4.03447 78.2434 3.47952 78.1503 2.92863 77.9639C2.38584 77.7776 1.89166 77.4941 1.44609 77.1133C1.00862 76.7325 0.656208 76.2546 0.388864 75.6794C0.129621 75.1042 0 74.4277 0 73.65C0 72.8804 0.125571 72.2039 0.376712 71.6206C0.627854 71.0292 0.96811 70.535 1.39748 70.1381C1.83495 69.733 2.33318 69.4292 2.89218 69.2267C3.45927 69.0241 4.04662 68.9229 4.65422 68.9229C5.22131 68.9229 5.70334 68.9917 6.10031 69.1294C6.50537 69.2591 6.83753 69.417 7.09677 69.6034C7.35601 69.7897 7.55045 69.9679 7.68007 70.1381L7.12108 71.1224C6.99956 70.9603 6.83753 70.7983 6.63499 70.6363C6.43246 70.4662 6.16917 70.3244 5.84512 70.211C5.52106 70.0975 5.12005 70.0408 4.64207 70.0408C4.18839 70.0408 3.75497 70.1178 3.3418 70.2717C2.92863 70.4175 2.56407 70.6403 2.24812 70.9401C1.93217 71.2398 1.68103 71.6125 1.4947 72.0581C1.30837 72.5036 1.2152 73.0181 1.2152 73.6014C1.2152 74.1847 1.30432 74.6991 1.48254 75.1447C1.66888 75.5821 1.92002 75.9508 2.23597 76.2505C2.55192 76.5503 2.91243 76.773 3.3175 76.9189C3.73067 77.0647 4.16409 77.1376 4.61776 77.1376C5.07954 77.1376 5.4684 77.0849 5.78436 76.9796C6.10031 76.8662 6.35955 76.7285 6.56208 76.5665C6.76462 76.3963 6.93069 76.2262 7.06032 76.0561Z" fill="black"/>
<path d="M60.4116 63.6469V37.4023H66.294V63.6469H60.4116Z" fill="black"/>
</svg>
