<svg width="25" height="25" viewBox="0 0 25 25" fill="none" xmlns="http://www.w3.org/2000/svg">
<circle cx="12.5" cy="12.5" r="12" stroke="white"/>
<g clip-path="url(#clip0_42_68)">
<path d="M8.98875 8.73C9.98484 7.93192 11.2236 7.49796 12.5 7.5C13.8281 7.5 15.0488 7.96 16.0113 8.73L16.9194 7.82188L17.8031 8.70563L16.895 9.61375C17.5561 10.4413 17.97 11.4388 18.0893 12.4912C18.2085 13.5437 18.0281 14.6085 17.5689 15.563C17.1097 16.5175 16.3904 17.3229 15.4936 17.8866C14.5969 18.4503 13.5592 18.7494 12.5 18.7494C11.4408 18.7494 10.4031 18.4503 9.50637 17.8866C8.60963 17.3229 7.89027 16.5175 7.43108 15.563C6.97189 14.6085 6.79153 13.5437 6.91075 12.4912C7.02997 11.4388 7.44394 10.4413 8.105 9.61375L7.19688 8.70625L8.08063 7.8225L8.98875 8.73063V8.73ZM13.125 12.5V9.68438L10 13.75H11.875V16.5625L15 12.5H13.125ZM10 5.625H15V6.875H10V5.625Z" fill="white"/>
</g>
<defs>
<clipPath id="clip0_42_68">
<rect width="15" height="15" fill="white" transform="translate(5 5)"/>
</clipPath>
</defs>
</svg>
