<svg width="33" height="33" viewBox="0 0 33 33" fill="none" xmlns="http://www.w3.org/2000/svg">
<path d="M4.40006 30.2456C4.40006 30.5492 4.64646 30.7956 4.95006 30.7956H13.1979V24.1956H19.7979V30.7956H28.0457C28.1915 30.7956 28.3314 30.7377 28.4346 30.6345C28.5377 30.5314 28.5957 30.3915 28.5957 30.2456V17.5956H4.40006V30.2456ZM30.6461 14.4716L28.5957 12.6676V4.40001C28.5957 3.81654 28.3639 3.25696 27.9513 2.84438C27.5387 2.4318 26.9791 2.20001 26.3957 2.20001C25.8122 2.20001 25.2526 2.4318 24.84 2.84438C24.4274 3.25696 24.1957 3.81654 24.1957 4.40001V8.80001L16.8983 2.39801C16.7984 2.29196 16.6606 2.22986 16.515 2.22532C16.3694 2.22078 16.2279 2.27419 16.1217 2.37381L16.0975 2.39801L2.34746 14.4166C2.27509 14.4946 2.22691 14.592 2.20875 14.6968C2.19059 14.8016 2.20324 14.9095 2.24515 15.0073C2.28707 15.1051 2.35646 15.1887 2.44491 15.2478C2.53335 15.307 2.63706 15.3392 2.74346 15.3406L6.60006 15.4H30.2435C30.3509 15.4003 30.456 15.3691 30.5459 15.3103C30.6357 15.2516 30.7064 15.1678 30.7493 15.0693C30.7921 14.9708 30.8051 14.8619 30.7868 14.7561C30.7684 14.6503 30.7195 14.55 30.6461 14.4716Z" fill="#CD930A"/>
</svg>
