<svg width="26" height="26" viewBox="0 0 26 26" fill="none" xmlns="http://www.w3.org/2000/svg">
<path d="M11.9167 19.4328C9.73127 19.1547 7.73375 18.0549 6.33012 16.357C4.92648 14.659 4.22205 12.4903 4.36 10.2916C4.49795 8.09291 5.46794 6.02924 7.0728 4.52004C8.67767 3.01084 10.797 2.16936 13 2.16663C15.2057 2.16499 17.3291 3.00441 18.9374 4.51386C20.5457 6.02331 21.518 8.0892 21.6561 10.2906C21.7942 12.492 21.0878 14.6632 19.6808 16.3618C18.2737 18.0605 16.2719 19.1587 14.0833 19.4328V21.6796C18.3582 21.7793 21.6667 22.4629 21.6667 23.2916C21.6667 24.1886 17.7862 24.9166 13 24.9166C8.21383 24.9166 4.33333 24.1886 4.33333 23.2916C4.33333 22.4629 7.64183 21.7793 11.9167 21.6796V19.4328ZM13 17.3333C14.7239 17.3333 16.3772 16.6485 17.5962 15.4295C18.8152 14.2105 19.5 12.5572 19.5 10.8333C19.5 9.10939 18.8152 7.45609 17.5962 6.2371C16.3772 5.01811 14.7239 4.3333 13 4.3333C11.2761 4.3333 9.62279 5.01811 8.4038 6.2371C7.18481 7.45609 6.49999 9.10939 6.49999 10.8333C6.49999 12.5572 7.18481 14.2105 8.4038 15.4295C9.62279 16.6485 11.2761 17.3333 13 17.3333ZM13 13C12.4254 13 11.8743 12.7717 11.4679 12.3654C11.0616 11.959 10.8333 11.4079 10.8333 10.8333C10.8333 10.2587 11.0616 9.70756 11.4679 9.30123C11.8743 8.8949 12.4254 8.66663 13 8.66663C13.5746 8.66663 14.1257 8.8949 14.5321 9.30123C14.9384 9.70756 15.1667 10.2587 15.1667 10.8333C15.1667 11.4079 14.9384 11.959 14.5321 12.3654C14.1257 12.7717 13.5746 13 13 13Z" fill="#CD930A"/>
</svg>
