<svg width="21" height="21" viewBox="0 0 21 21" fill="none" xmlns="http://www.w3.org/2000/svg">
<path d="M10.5 0C16.296 0 21 4.704 21 10.5C21 16.296 16.296 21 10.5 21C4.704 21 0 16.296 0 10.5C0 4.704 4.704 0 10.5 0ZM4.22415 14.0868C5.76555 16.3863 8.07975 17.85 10.668 17.85C13.2552 17.85 15.5704 16.3874 17.1108 14.0868C15.3633 12.4536 13.0598 11.5466 10.668 11.55C8.27579 11.5464 5.97189 12.4534 4.22415 14.0868ZM10.5 9.45C11.3354 9.45 12.1366 9.11813 12.7274 8.52739C13.3181 7.93665 13.65 7.13543 13.65 6.3C13.65 5.46457 13.3181 4.66335 12.7274 4.07261C12.1366 3.48187 11.3354 3.15 10.5 3.15C9.66457 3.15 8.86335 3.48187 8.27261 4.07261C7.68187 4.66335 7.35 5.46457 7.35 6.3C7.35 7.13543 7.68187 7.93665 8.27261 8.52739C8.86335 9.11813 9.66457 9.45 10.5 9.45Z" fill="white"/>
</svg>
