<svg width="36" height="36" viewBox="0 0 36 36" fill="none" xmlns="http://www.w3.org/2000/svg">
<path opacity="0.1" fill-rule="evenodd" clip-rule="evenodd" d="M0.664062 17.6667C0.664062 7.90964 8.5737 0 18.3307 0C28.0878 0 35.9974 7.90964 35.9974 17.6667C35.9974 27.4237 28.0878 35.3333 18.3307 35.3333C8.5737 35.3333 0.664062 27.4237 0.664062 17.6667Z" fill="#CD930A"/>
<path d="M23.1282 18.8245L23.7005 15.2547H20.1208V12.9392C20.1208 11.9623 20.6199 11.0096 22.2232 11.0096H23.8517V7.97045C23.8517 7.97045 22.3745 7.72925 20.9627 7.72925C18.0133 7.72925 16.0873 9.43937 16.0873 12.534V15.2547H12.8101V18.8245H16.0873V27.4547C16.7452 27.5536 17.4183 27.6042 18.104 27.6042C18.7897 27.6042 19.4628 27.5536 20.1208 27.4547V18.8245H23.1282Z" fill="#CD930A"/>
</svg>
