<svg width="36" height="36" viewBox="0 0 36 36" fill="none" xmlns="http://www.w3.org/2000/svg">
<path opacity="0.1" fill-rule="evenodd" clip-rule="evenodd" d="M0.328125 17.6667C0.328125 7.90964 8.23776 0 17.9948 0C27.7518 0 35.6615 7.90964 35.6615 17.6667C35.6615 27.4237 27.7518 35.3333 17.9948 35.3333C8.23776 35.3333 0.328125 27.4237 0.328125 17.6667Z" fill="#CD930A"/>
<path fill-rule="evenodd" clip-rule="evenodd" d="M17.9959 8.24438C15.4369 8.24438 15.1158 8.25557 14.1107 8.30131C13.1076 8.34725 12.4229 8.50605 11.8238 8.73906C11.2041 8.97972 10.6784 9.30165 10.1547 9.82557C9.63061 10.3493 9.30868 10.875 9.06723 11.4945C8.83363 12.0938 8.67463 12.7787 8.62948 13.7814C8.58453 14.7864 8.57275 15.1078 8.57275 17.6667C8.57275 20.2256 8.58414 20.5458 8.62968 21.5509C8.67581 22.5539 8.83462 23.2386 9.06743 23.8377C9.30828 24.4574 9.63021 24.9831 10.1541 25.5069C10.6777 26.031 11.2033 26.3537 11.8227 26.5944C12.4222 26.8274 13.107 26.9862 14.1099 27.0321C15.115 27.0778 15.4359 27.089 17.9947 27.089C20.5538 27.089 20.874 27.0778 21.879 27.0321C22.8821 26.9862 23.5676 26.8274 24.1671 26.5944C24.7866 26.3537 25.3115 26.031 25.835 25.5069C26.3591 24.9831 26.6811 24.4574 26.9225 23.8379C27.1542 23.2386 27.3132 22.5537 27.3603 21.5511C27.4054 20.546 27.4172 20.2256 27.4172 17.6667C27.4172 15.1078 27.4054 14.7866 27.3603 13.7816C27.3132 12.7785 27.1542 12.0938 26.9225 11.4947C26.6811 10.875 26.3591 10.3493 25.835 9.82557C25.3109 9.30145 24.7868 8.97952 24.1665 8.73906C23.5658 8.50605 22.8807 8.34725 21.8777 8.30131C20.8726 8.25557 20.5526 8.24438 17.9929 8.24438H17.9959ZM17.1506 9.94234C17.4014 9.94195 17.6813 9.94234 17.9958 9.94234C20.5116 9.94234 20.8098 9.95137 21.8032 9.99652C22.7219 10.0385 23.2205 10.192 23.5526 10.321C23.9923 10.4918 24.3058 10.6959 24.6354 11.0257C24.9652 11.3555 25.1693 11.6696 25.3405 12.1093C25.4695 12.441 25.6232 12.9396 25.665 13.8583C25.7101 14.8516 25.72 15.1499 25.72 17.6645C25.72 20.1791 25.7101 20.4775 25.665 21.4707C25.623 22.3894 25.4695 22.888 25.3405 23.2198C25.1697 23.6595 24.9652 23.9726 24.6354 24.3022C24.3056 24.6319 23.9925 24.8361 23.5526 25.0069C23.2209 25.1364 22.7219 25.2895 21.8032 25.3315C20.81 25.3767 20.5116 25.3865 17.9958 25.3865C15.4799 25.3865 15.1817 25.3767 14.1884 25.3315C13.2697 25.2891 12.7711 25.1356 12.4388 25.0067C11.9991 24.8359 11.685 24.6317 11.3552 24.302C11.0255 23.9722 10.8213 23.6589 10.6501 23.219C10.5212 22.8872 10.3675 22.3886 10.3257 21.47C10.2805 20.4767 10.2715 20.1783 10.2715 17.6622C10.2715 15.146 10.2805 14.8492 10.3257 13.8559C10.3677 12.9373 10.5212 12.4387 10.6501 12.1065C10.8209 11.6668 11.0255 11.3527 11.3552 11.023C11.685 10.6932 11.9991 10.489 12.4388 10.3179C12.7709 10.1883 13.2697 10.0352 14.1884 9.99298C15.0576 9.95372 15.3945 9.94195 17.1506 9.93998V9.94234ZM23.0254 11.5068C22.4012 11.5068 21.8947 12.0127 21.8947 12.6371C21.8947 13.2614 22.4012 13.7678 23.0254 13.7678C23.6496 13.7678 24.1561 13.2614 24.1561 12.6371C24.1561 12.0129 23.6496 11.5068 23.0254 11.5068ZM17.9959 12.8279C15.3237 12.8279 13.1571 14.9945 13.1571 17.6667C13.1571 20.3389 15.3237 22.5044 17.9959 22.5044C20.6681 22.5044 22.8338 20.3389 22.8338 17.6667C22.8338 14.9945 20.6681 12.8279 17.9959 12.8279ZM17.9958 14.5259C19.7303 14.5259 21.1366 15.932 21.1366 17.6667C21.1366 19.4012 19.7303 20.8075 17.9958 20.8075C16.2612 20.8075 14.8551 19.4012 14.8551 17.6667C14.8551 15.932 16.2612 14.5259 17.9958 14.5259Z" fill="#CD930A"/>
</svg>
