<svg width="36" height="36" viewBox="0 0 36 36" fill="none" xmlns="http://www.w3.org/2000/svg">
<path opacity="0.1" fill-rule="evenodd" clip-rule="evenodd" d="M0 17.6667C0 7.90964 7.90964 0 17.6667 0C27.4237 0 35.3333 7.90964 35.3333 17.6667C35.3333 27.4237 27.4237 35.3333 17.6667 35.3333C7.90964 35.3333 0 27.4237 0 17.6667Z" fill="#CD930A"/>
<path fill-rule="evenodd" clip-rule="evenodd" d="M17.1377 14.3598L17.1748 14.9711L16.5569 14.8962C14.3079 14.6093 12.343 13.6362 10.6748 12.0019L9.85917 11.191L9.64909 11.7898C9.20422 13.1247 9.48844 14.5344 10.4153 15.4826C10.9096 16.0066 10.7983 16.0814 9.94567 15.7695C9.64909 15.6697 9.38958 15.5949 9.36487 15.6323C9.27836 15.7196 9.57494 16.8549 9.80974 17.304C10.131 17.9278 10.786 18.5391 11.5027 18.9009L12.1082 19.1879L11.3915 19.2003C10.6995 19.2003 10.6748 19.2128 10.7489 19.4748C10.9961 20.2857 11.9723 21.1465 13.0598 21.5208L13.8259 21.7828L13.1586 22.182C12.17 22.7559 11.0084 23.0803 9.84681 23.1052C9.29072 23.1177 8.8335 23.1676 8.8335 23.205C8.8335 23.3298 10.3411 24.0284 11.2185 24.3029C13.8506 25.1138 16.9771 24.7645 19.325 23.3797C20.9932 22.3941 22.6615 20.4354 23.44 18.5391C23.8602 17.5286 24.2803 15.6822 24.2803 14.7964C24.2803 14.2226 24.3174 14.1477 25.0094 13.4615C25.4172 13.0623 25.8003 12.6257 25.8744 12.5009C25.998 12.2639 25.9857 12.2639 25.3554 12.476C24.305 12.8502 24.1568 12.8003 24.6758 12.2389C25.0589 11.8397 25.5161 11.1161 25.5161 10.904C25.5161 10.8666 25.3307 10.929 25.1206 11.0413C24.8982 11.166 24.4039 11.3532 24.0332 11.4654L23.3659 11.6775L22.7604 11.2658C22.4267 11.0413 21.9571 10.7918 21.71 10.7169C21.0797 10.5422 20.1159 10.5672 19.5474 10.7668C18.0027 11.3282 17.0265 12.7754 17.1377 14.3598Z" fill="#CD930A"/>
</svg>
